<?xml version="1.0" encoding="UTF-8" standalone="no"?>
<!-- Created with Inkscape (http://www.inkscape.org/) -->

<svg
   width="200mm"
   height="200mm"
   viewBox="0 0 200 200"
   version="1.1"
   id="svg1"
   xml:space="preserve"
   inkscape:version="1.3.2 (091e20ef0f, 2023-11-25)"
   sodipodi:docname="isr.svg"
   xmlns:inkscape="http://www.inkscape.org/namespaces/inkscape"
   xmlns:sodipodi="http://sodipodi.sourceforge.net/DTD/sodipodi-0.dtd"
   xmlns="http://www.w3.org/2000/svg"
   xmlns:svg="http://www.w3.org/2000/svg"><sodipodi:namedview
     id="namedview1"
     pagecolor="#ffffff"
     bordercolor="#000000"
     borderopacity="0.25"
     inkscape:showpageshadow="2"
     inkscape:pageopacity="0.0"
     inkscape:pagecheckerboard="0"
     inkscape:deskcolor="#d1d1d1"
     inkscape:document-units="mm"
     inkscape:zoom="0.94183899"
     inkscape:cx="234.64733"
     inkscape:cy="362.58851"
     inkscape:window-width="1920"
     inkscape:window-height="1013"
     inkscape:window-x="0"
     inkscape:window-y="0"
     inkscape:window-maximized="1"
     inkscape:current-layer="layer1"
     showgrid="false" /><defs
     id="defs1" /><g
     inkscape:label="Reference"
     inkscape:groupmode="layer"
     id="layer1"><path
       style="fill:#000000;stroke-width:1.29505"
       d="m 68.855534,197.02788 c -0.185022,-4.79554 14.782328,-18.75768 21.907721,-27.01564 0.750321,-6.61966 1.238974,-19.23532 1.161346,-20.20688 -0.01693,-0.21192 -0.720507,-0.74454 -1.991415,-1.50754 -1.080878,-0.64892 -3.560171,-2.15384 -5.50954,-3.34428 -3.181354,-1.94278 -3.611165,-2.15549 -4.197205,-2.07722 -0.359094,0.0479 -1.302841,0.13731 -2.097217,0.19855 l -1.444319,0.11141 -0.203506,-0.49853 c -0.764326,-1.87233 -2.281283,-8.18355 -3.057683,-12.72134 -0.157222,-0.91891 -0.325738,-1.88837 -0.37448,-2.15438 -0.07783,-0.4247 -0.02667,-0.48734 0.419707,-0.51399 0.27958,-0.0167 -0.03731,-0.0761 -0.704198,-0.1319 l -1.212526,-0.1016 -0.318449,-1.20207 c -0.754627,-2.84852 -0.933999,-14.84813 -0.263158,-17.60469 0.163292,-0.67099 0.36129,-1.28069 0.439996,-1.3549 0.07871,-0.0742 2.564369,-0.2332 5.523694,-0.35334 l 5.380592,-0.21845 0.352886,0.43019 c 0.194086,0.23661 0.517279,0.82589 0.718206,1.30953 0.238664,0.57447 0.368691,0.74214 0.375041,0.48363 0.0091,-0.36884 0.09206,-0.3957 1.222247,-0.3957 H 86.1958 v -1.42786 -1.42786 l -1.725519,0.11041 c -0.949034,0.0607 -4.327784,0.23194 -7.508331,0.38052 -3.18055,0.14859 -8.007335,0.3793 -10.72619,0.51269 l -4.943375,0.24252 -4.663561,1.40957 c -2.564957,0.77526 -11.169227,3.35987 -19.120598,5.74358 -7.951371,2.3837 -17.898746,5.36622 -22.105277,6.6278 -4.206533,1.26159 -8.7103089,2.61158 -10.0083927,2.99996 l -2.3601514,0.70618 -1.4639685,2.03148 c -1.65442674,2.29577 -1.65530837,2.29553 -1.51370379,-0.41009 0.07026344,-1.34264 0.30302377,-2.26285 1.53388649,-6.06431 0.798077,-2.46483 1.4800005,-4.7599 1.515387,-5.10017 0.1063821,-1.023 0.9045591,-2.3198 2.0627736,-3.3514 1.7540612,-1.56232 -1.3293716,0.0138 28.8884113,-14.766783 6.77149,-3.312183 15.711536,-7.687336 19.866768,-9.722566 l 7.554969,-3.700416 12.351929,-8.456793 12.351929,-8.456794 0.0065,-0.675969 c 0.0051,-0.526366 0.08952,-0.696438 0.381631,-0.768454 0.732562,-0.180607 0.767636,-1.947477 0.04459,-2.24654 -0.40704,-0.16836 -0.41972,-0.249385 -0.41972,-2.681986 0,-2.383095 0.01846,-2.508381 0.36953,-2.508381 0.736023,0 0.77932,-1.894505 0.05019,-2.196086 l -0.41972,-0.173605 V 44.566356 c 0,-5.621568 0.08499,-11.241566 0.188869,-12.488886 C 87.183317,22.487925 90.112689,13.479606 94.825385,6.1208881 96.830125,2.9905515 99.354505,0 99.992139,0 c 0.698931,0 3.477271,3.3649401 5.585511,6.7647696 3.3514,5.4046344 6.02435,12.4175284 7.20828,18.9119484 0.77275,4.238992 0.87117,5.64286 0.96166,13.717699 l 0.0896,8.00199 -0.43629,0.175868 c -0.37432,0.150886 -0.4363,0.30078 -0.4363,1.055208 0,0.743224 0.065,0.906212 0.41973,1.052944 0.40656,0.168162 0.41971,0.250929 0.41971,2.640282 0,2.389353 -0.0133,2.47212 -0.41971,2.640283 -0.72914,0.301581 -0.68584,2.196086 0.0502,2.196086 0.35136,0 0.36954,0.125418 0.36954,2.550084 0,2.122275 -0.0459,2.550085 -0.27325,2.550085 -0.37069,0 -0.66007,0.556852 -0.65661,1.263481 0.003,0.667714 0.14125,0.91332 0.60341,1.074078 0.23027,0.0801 0.32837,0.309482 0.33296,0.778578 l 0.007,0.665024 12.36736,8.467441 12.36736,8.467443 7.63281,3.734158 c 4.19804,2.053787 11.9979,5.869353 17.33301,8.479035 5.33511,2.609682 10.79148,5.280225 12.12526,5.934555 1.33378,0.65432 4.56561,2.2372 7.18187,3.51752 10.21595,4.99938 10.38684,5.0907 11.74464,6.27589 1.36493,1.19138 2.43259,2.87528 2.43259,3.83661 0,0.27337 0.64312,2.48306 1.42915,4.9104 1.21001,3.73662 1.44186,4.65608 1.512,5.99618 0.14158,2.70529 0.14052,2.70557 -1.51115,0.41362 l -1.46143,-2.02795 -2.45596,-0.74218 c -1.3508,-0.40821 -5.85572,-1.75979 -10.01096,-3.0035 -15.89677,-4.75814 -36.66072,-10.9873 -41.1326,-12.33974 l -4.66356,-1.4104 -5.12991,-0.24837 c -2.82145,-0.1366 -8.38041,-0.40719 -12.35326,-0.60131 -3.97283,-0.1941 -7.26764,-0.35293 -7.32179,-0.35293 -0.0541,0 -0.0984,0.63313 -0.0984,1.40696 v 1.40694 h 1.29479 c 0.72035,0 1.34964,0.0836 1.41843,0.18862 0.068,0.10374 0.31144,-0.19303 0.54096,-0.6595 0.70719,-1.43733 0.37227,-1.37692 6.31801,-1.13973 5.90773,0.23566 5.55658,0.13619 5.90986,1.67394 0.78416,3.4134 0.51814,15.35621 -0.40691,18.26709 -0.19309,0.60761 -0.26723,0.66331 -0.88266,0.66331 h -0.67186 l -0.61427,3.4461 c -0.88099,4.94249 -2.64821,12.09051 -3.09278,12.50963 -0.0508,0.0479 -1.03492,8e-5 -2.18676,-0.10638 l -2.09424,-0.19364 -5.14471,3.13582 c -2.82958,1.7247 -5.31258,3.21991 -5.51777,3.32267 -0.30645,0.15347 -0.51699,0.82608 -1.17864,3.76528 -0.84444,3.75118 0.44559,11.07449 1.36505,16.40658 21.18887,22.65233 -0.16147,0.15153 21.30552,22.63766 1.02289,1.07146 1.17302,2.44356 1.17302,5.39157 V 200 l -0.49581,-0.11732 c -0.27269,-0.0645 -4.32299,-1.19008 -9.00067,-2.50122 -4.67767,-1.31113 -11.26369,-3.15658 -14.6356,-4.10099 -3.37191,-0.9444 -6.1947,-1.81465 -6.27285,-1.93388 -0.0802,-0.12222 -0.28607,0.55596 -0.47234,1.55561 -0.18162,0.97482 -0.38947,1.73786 -0.46191,1.69566 -0.07242,-0.0422 -0.239597,-0.69258 -0.371488,-1.4453 -0.131884,-0.75271 -0.299829,-1.43216 -0.373196,-1.5099 -0.07337,-0.0777 -2.517096,0.52988 -5.430508,1.35027 -2.913412,0.82039 -8.445016,2.38016 -12.292455,3.46618 -3.847437,1.086 -7.121257,1.99085 -7.275154,2.01076 -0.153898,0.0199 -0.40573,0.0824 -0.559628,0.1387 -0.229486,0.084 -3.268719,0.94998 -4.523653,1.28885 -0.301894,0.0815 -0.325834,-0.13432 -0.318262,-2.86949 z M 98.44848,150.68582 c -0.05955,-0.14029 -0.103755,-0.0986 -0.112704,0.10625 -0.0081,0.18539 0.03599,0.28927 0.09798,0.23082 0.06198,-0.0585 0.06861,-0.21012 0.01472,-0.33707 z m 3.17122,0 c -0.0596,-0.14029 -0.10377,-0.0986 -0.1127,0.10625 -0.008,0.18539 0.036,0.28927 0.098,0.23082 0.062,-0.0585 0.0686,-0.21012 0.0147,-0.33707 z m -3.169377,-0.97492 c -0.04729,-0.17111 -0.08911,-0.0737 -0.09291,0.21649 -0.0037,0.29018 0.03489,0.43018 0.08599,0.31111 0.0511,-0.11908 0.05421,-0.35648 0.0069,-0.5276 z m 3.171217,0 c -0.0473,-0.17111 -0.0891,-0.0737 -0.0928,0.21649 -0.004,0.29018 0.0349,0.43018 0.086,0.31111 0.0511,-0.11908 0.0542,-0.35648 0.007,-0.5276 z m 7.08678,-1.83898 c -0.0596,-0.14029 -0.10377,-0.0986 -0.11271,0.10626 -0.008,0.1854 0.036,0.28926 0.098,0.23083 0.062,-0.0585 0.0686,-0.21012 0.0147,-0.33709 z M 82.02886,136.60538 c -0.05175,-0.12084 -0.09408,-0.022 -0.09408,0.21984 0,0.24183 0.04233,0.34075 0.09408,0.21983 0.05175,-0.12084 0.05175,-0.31875 0,-0.43967 z m 36.19311,-0.51661 c -0.0595,-0.14029 -0.10377,-0.0986 -0.1127,0.10626 -0.008,0.1854 0.036,0.28926 0.098,0.23083 0.062,-0.0585 0.0687,-0.21012 0.0147,-0.33709 z m -36.006568,-0.89033 c -0.05175,-0.12097 -0.09408,-0.022 -0.09408,0.21984 0,0.24182 0.04233,0.34075 0.09408,0.21983 0.05175,-0.12084 0.05175,-0.31875 0,-0.43967 z m 35.821188,-0.61554 c -0.047,-0.16926 -0.0854,-0.0308 -0.0854,0.30778 0,0.33854 0.0384,0.47704 0.0854,0.30776 0.0469,-0.16926 0.0469,-0.44626 0,-0.61554 z m -35.626255,-0.96522 c -0.04461,-0.21876 -0.08281,-0.0812 -0.08489,0.30573 -0.0021,0.3869 0.03444,0.56589 0.08112,0.39774 0.04669,-0.16814 0.04839,-0.4847 0.0037,-0.70347 z m 35.443065,-0.70347 c -0.0447,-0.21876 -0.0828,-0.0812 -0.085,0.30573 -0.003,0.3869 0.0344,0.56589 0.0811,0.39774 0.0467,-0.16815 0.0484,-0.4847 0.004,-0.70347 z M 82.596878,131.859 c -0.04462,-0.21876 -0.08282,-0.0812 -0.0849,0.30573 -0.0021,0.38691 0.03444,0.56589 0.08112,0.39775 0.0467,-0.16815 0.04839,-0.48472 0.0037,-0.70348 z m 35.071892,-0.79104 c -0.0428,-0.26732 -0.0791,-0.0903 -0.0804,0.39329 -10e-4,0.48364 0.0336,0.70236 0.078,0.48605 0.0443,-0.2163 0.0453,-0.612 0.003,-0.87934 z m -34.883672,-1.58522 c -0.04273,-0.266 -0.07771,-0.0484 -0.07771,0.48363 0,0.532 0.03497,0.74964 0.07771,0.48364 0.04275,-0.266 0.04275,-0.70127 0,-0.96727 z m 34.697132,-0.87692 c -0.0428,-0.26734 -0.0791,-0.0903 -0.0806,0.39328 -10e-4,0.48364 0.0337,0.70236 0.078,0.48605 0.0443,-0.2163 0.0455,-0.612 0.003,-0.87933 z m 9.51583,-1.38372 c -0.062,-0.0585 -0.22287,-0.0646 -0.35753,-0.0138 -0.14881,0.0562 -0.10457,0.0978 0.1127,0.10625 0.19664,0.008 0.30682,-0.034 0.24483,-0.0924 z m -48.403871,-0.19927 c -0.538641,-0.0355 -1.420054,-0.0355 -1.958696,0 -0.538641,0.0355 -0.09794,0.0646 0.979348,0.0646 1.077283,0 1.517989,-0.029 0.979348,-0.0646 z m 45.056251,6.3e-4 c -0.4839,-0.0361 -1.32335,-0.0365 -1.86543,-8.3e-4 -0.54208,0.0356 -0.14615,0.0651 0.87983,0.0656 1.02598,4.5e-4 1.46951,-0.0287 0.9856,-0.0648 z m -39.36756,-0.39858 c 0.05384,-0.18717 0.0294,-0.20218 -0.08416,-0.0517 -0.09602,0.12724 -0.792028,0.23755 -1.739719,0.27571 l -1.57967,0.0636 1.663827,-0.0113 c 1.313389,-0.009 1.679813,-0.0675 1.739719,-0.27571 z m 33.54069,0.22037 c -0.81592,-0.0333 -1.59241,-0.14579 -1.72552,-0.24994 -0.16291,-0.12747 -0.24201,-0.12963 -0.24201,-0.006 0,0.29585 0.37919,0.36142 1.95869,0.33865 l 1.49234,-0.0215 z m -1.97234,-1.89111 c -0.12417,-1.03262 -0.1275,-1.03764 -0.15431,-0.23421 -0.0235,0.70235 0.12217,1.50521 0.24321,1.34097 0.0209,-0.0284 -0.0191,-0.52639 -0.0888,-1.10676 z m -31.158528,-1.83196 c 0.01553,-2.13832 -0.11037,-1.68517 -0.2158,0.77675 -0.05434,1.26874 -0.03146,1.82986 0.05734,1.40695 0.08124,-0.38691 0.152553,-1.36958 0.158465,-2.1837 z m -0.234903,-10.0721 c -0.05955,-0.14029 -0.103755,-0.0986 -0.112705,0.10626 -0.0081,0.18538 0.03599,0.28926 0.09798,0.23082 0.06198,-0.0585 0.06861,-0.21012 0.01472,-0.33708 z m 31.526831,-0.97827 c -0.0469,-0.16927 -0.0854,-0.0308 -0.0854,0.30777 0,0.33855 0.0384,0.47704 0.0854,0.30778 0.0469,-0.16928 0.0469,-0.44627 0,-0.61555 z M 84.272414,111.5442 c -0.04692,-0.16926 -0.08531,-0.0308 -0.08531,0.30778 0,0.33854 0.03839,0.47704 0.08531,0.30776 0.04692,-0.16926 0.04692,-0.44626 0,-0.61554 z m 31.898756,-0.70347 c -0.047,-0.16926 -0.0854,-0.0308 -0.0854,0.30778 0,0.33854 0.0384,0.47704 0.0854,0.30776 0.0469,-0.16927 0.0469,-0.44626 0,-0.61554 z m -32.084614,-0.34838 c -0.0473,-0.17111 -0.08911,-0.0737 -0.09291,0.21649 -0.0039,0.29018 0.03489,0.43019 0.08599,0.31112 0.0511,-0.11908 0.0542,-0.3565 0.0069,-0.52761 z m 32.269994,-0.6079 c -0.0595,-0.14029 -0.10377,-0.0986 -0.1127,0.10626 -0.008,0.18539 0.036,0.28926 0.098,0.23083 0.062,-0.0585 0.0686,-0.21012 0.0147,-0.33709 z M 86.904654,101.4406 c 0.244425,-0.23044 0.301024,-1.513252 0.08109,-1.837832 -0.07538,-0.111247 -0.304939,-0.229952 -0.510135,-0.263802 -0.338456,-0.05583 -0.378205,0.04864 -0.428244,1.125574 -0.04904,1.05555 -0.01701,1.1871 0.289141,1.1871 0.189365,0 0.445032,-0.0949 0.56815,-0.21104 z m 26.927356,-0.9321 c -0.075,-1.20989 -0.11617,-1.28724 -0.54987,-1.031255 -0.34424,0.20316 -0.50644,1.087675 -0.32466,1.770475 0.0843,0.31672 0.22012,0.41247 0.52674,0.37137 0.3827,-0.0513 0.40831,-0.13311 0.34779,-1.11059 z M 86.904654,94.054143 c 0.235482,-0.222006 0.303298,-1.32368 0.110623,-1.797055 -0.06227,-0.153002 -0.314109,-0.278185 -0.559628,-0.278185 -0.425051,0 -0.446397,0.05466 -0.446397,1.14314 0,0.983558 0.04687,1.143142 0.335776,1.143142 0.184677,0 0.436509,-0.09496 0.559626,-0.211042 z m 26.899416,-0.9321 c 0,-0.820716 -0.0684,-1.14314 -0.24251,-1.14314 -0.44114,0 -0.6902,0.412485 -0.6902,1.14314 0,0.730656 0.24906,1.143142 0.6902,1.143142 0.17412,0 0.24251,-0.322425 0.24251,-1.143142 z M 86.904654,86.66769 c 0.123121,-0.116075 0.22385,-0.535517 0.22385,-0.932099 0,-0.777365 -0.250693,-1.143142 -0.783477,-1.143142 -0.288902,0 -0.335776,0.159584 -0.335776,1.143142 0,0.983557 0.04687,1.143142 0.335776,1.143142 0.184676,0 0.436508,-0.09496 0.559627,-0.211043 z m 26.899416,-0.932099 c 0,-0.820717 -0.0684,-1.143142 -0.24251,-1.143142 -0.44114,0 -0.6902,0.412486 -0.6902,1.143142 0,0.730655 0.24906,1.143142 0.6902,1.143142 0.17412,0 0.24251,-0.322426 0.24251,-1.143142 z M 86.904654,79.281237 c 0.235482,-0.222006 0.303298,-1.323681 0.110623,-1.797055 -0.06227,-0.153002 -0.314109,-0.278186 -0.559628,-0.278186 -0.419818,0 -0.446397,0.06109 -0.446397,1.025897 0,0.564243 0.05597,1.078655 0.124362,1.143141 0.191065,0.180132 0.523364,0.139709 0.771041,-0.09379 z m 26.899416,-0.932099 c 0,-1.00436 -0.0428,-1.143142 -0.35313,-1.143142 -0.42193,0 -0.57958,0.329217 -0.57958,1.210286 0,0.670095 0.26037,1.075998 0.6902,1.075998 0.17412,0 0.24251,-0.322426 0.24251,-1.143142 z M 86.935399,71.765652 c 0.456248,-0.803724 0.01655,-2.269995 -0.621352,-2.072038 -0.221059,0.06861 -0.39798,1.75374 -0.227974,2.171413 0.142842,0.350941 0.625772,0.294436 0.849326,-0.09938 z m 26.868671,-0.890901 c 0,-1.258145 -0.12297,-1.441736 -0.63957,-0.954712 -0.57834,0.545245 -0.22832,2.185787 0.46635,2.185787 0.0952,0 0.17322,-0.553984 0.17322,-1.231075 z M 90.092512,31.011298 c 0.550528,-1.501296 1.139119,-2.567816 2.192089,-3.972036 0.344695,-0.459678 0.62672,-0.910277 0.62672,-1.001329 0,-0.09105 -0.475704,-0.931584 -1.057118,-1.867847 L 90.797084,22.467792 90.37001,23.23687 c -1.297374,2.336316 -2.317801,5.43786 -2.64241,8.031486 l -0.160563,1.282898 0.99939,-0.05182 0.999389,-0.05182 z m 22.285978,0.86474 c -0.47421,-3.246634 -1.2561,-5.818151 -2.4482,-8.051834 l -0.72558,-1.359517 -1.05809,1.703848 c -0.58194,0.937116 -1.05807,1.774736 -1.05807,1.861379 0,0.08664 0.36747,0.655952 0.81659,1.265131 0.99017,1.343022 1.63698,2.544649 2.06349,3.833554 0.17605,0.532 0.35291,1.066199 0.39303,1.187108 0.0467,0.140684 0.44022,0.219835 1.09305,0.219835 h 1.0201 z M 94.030575,24.981741 c 0,-0.09204 0.608594,-0.653951 1.352433,-1.248688 1.191467,-0.952641 2.525421,-1.70408 3.544305,-1.99657 0.292705,-0.08402 0.326449,-0.377293 0.326449,-2.837037 v -2.743323 l -0.41972,0.110216 c -1.02769,0.269869 -3.49928,1.553111 -4.499368,2.336058 -1.255152,0.982633 -2.771711,2.6353 -2.690724,2.932212 0.03017,0.110593 0.516537,0.967421 1.080828,1.904072 0.937502,1.556135 1.305797,1.991348 1.305797,1.54306 z m 13.244515,-1.543059 c 0.56428,-0.936651 1.05066,-1.793482 1.08083,-1.904072 0.081,-0.296911 -1.43557,-1.949579 -2.69072,-2.932212 -1.0001,-0.782947 -3.47168,-2.066189 -4.49937,-2.336058 l -0.41973,-0.110216 v 2.743323 c 0,2.459744 0.0337,2.753011 0.32646,2.837038 1.01887,0.292489 2.35284,1.043928 3.5443,1.996569 0.74383,0.594738 1.35242,1.156648 1.35242,1.248689 0,0.448289 0.3683,0.01308 1.30581,-1.543061 z"
       id="path1"
       sodipodi:nodetypes="ccssscccssssccsssscsscsccccsscsssccsssssssccccssssscscssssccsssscssscsccccssssssssscscscsssscscssssscssccssscsscssscssssssscsccsscssscssscsssccsccsccssssssccccsssscscccssccccscccsscccccccssssccsccsccsscsscsccsscsscccccsssccccsccssssssscsssscssssscsccscsssccccssssssscssscssssssssssssssssssssssssssssssssssssssssssssssscsscccssscsssssscssssscssssssssscscsss" /></g><g
     inkscape:groupmode="layer"
     id="layer2"
     inkscape:label="Drawing" /></svg>
