<?xml version="1.0"?>
<svg xmlns="http://www.w3.org/2000/svg" viewBox="0 0 64 64" width="512" height="512"><g id="outline"><circle cx="39" cy="12" r="2"/><circle cx="25" cy="12" r="2"/><path d="M50.02,14a1.972,1.972,0,0,0,1.722-.989A2,2,0,0,0,51.748,11c-.141-.248-.287-.475-.437-.707a8.233,8.233,0,0,1-1.353-3.4,6.027,6.027,0,0,0-2.517-4.147,5.13,5.13,0,0,0-3.691-.627.972.972,0,0,0-.189.069L39.773,4H24.227L20.433,2.181a1,1,0,0,0-.189-.069,5.1,5.1,0,0,0-3.685.626,6.02,6.02,0,0,0-2.513,4.149,8.238,8.238,0,0,1-1.345,3.4c-.149.233-.3.461-.436.71a2,2,0,0,0,.012,2.013A1.977,1.977,0,0,0,14,14h3v4.917l-.992,5.941a3.859,3.859,0,0,0,2.551,4.034l.441.264V34H14a1,1,0,0,0-1,1V59a3,3,0,0,0,3,3H48a3,3,0,0,0,3-3V35a1,1,0,0,0-1-1H45V29.156l.441-.264a3.869,3.869,0,0,0,2.545-4.077L47,18.917V14ZM31,6h2v9H31Zm3.382,11-1,2H30.618l-1-2ZM30,21h4a1,1,0,0,0,.9-.553l1.552-3.105.95.474c1.4,1.532,2.364,5.1,2.617,6.347a1.333,1.333,0,0,1-.356,1.019A2.342,2.342,0,0,1,37.992,26c-1.872,0-5-.524-5-4a1,1,0,0,0-2,0c0,3.306-2.713,4-4.989,4a2.325,2.325,0,0,1-1.657-.813,1.327,1.327,0,0,1-.362-.993c.252-1.276,1.2-4.841,2.6-6.376l.972-.48,1.554,3.109A1,1,0,0,0,30,21Zm-5,9V28H39v2Zm14,2v2H25V32Zm-7.444-6a5.16,5.16,0,0,0,.435-.533,5.052,5.052,0,0,0,.437.533ZM14.007,11.981c.12-.213.247-.41.376-.61a10.142,10.142,0,0,0,1.624-4.094,4.162,4.162,0,0,1,1.6-2.837A2.932,2.932,0,0,1,19.192,4a3.128,3.128,0,0,1,.489.037l2.788,1.337L17.5,12Zm3.979,13.165,1-5.981A1.011,1.011,0,0,0,19,19V13.333L24.5,6H29v9H27.993a15.238,15.238,0,0,0-7.555,2.168l1.11,1.664A10.132,10.132,0,0,1,24.281,17.6a18.711,18.711,0,0,0-1.828,4.459A3.992,3.992,0,0,0,19,26v.887A1.753,1.753,0,0,1,17.986,25.146Zm5.073,1.563A.978.978,0,0,0,23,27v7H21V26a1.994,1.994,0,0,1,.993-1.718,3.314,3.314,0,0,0,.824,2.2C22.889,26.565,22.98,26.63,23.059,26.709ZM19,36H45V50H19Zm21.941-9.3c.078-.079.17-.145.242-.229a3.315,3.315,0,0,0,.822-2.2A1.994,1.994,0,0,1,43,26v8H41V27A1,1,0,0,0,40.941,26.705ZM49,59a1,1,0,0,1-1,1H16a1,1,0,0,1-1-1V56H49Zm-3-7a1,1,0,0,0,1-1V36h2V54H15V36h2V51a1,1,0,0,0,1,1ZM45,26.887V26a3.991,3.991,0,0,0-3.459-3.945A18.88,18.88,0,0,0,39.7,17.59a10.161,10.161,0,0,1,2.743,1.242l1.11-1.664A15.222,15.222,0,0,0,36,15H35V6h4.5L45,13.333V19a1.011,1.011,0,0,0,.014.165l.994,5.938A1.772,1.772,0,0,1,45,26.887ZM46.5,12,41.53,5.374l2.782-1.335a3.074,3.074,0,0,1,2.08.4A4.158,4.158,0,0,1,48,7.278a10.122,10.122,0,0,0,1.635,4.1c.129.2.256.4.388.626Z"/><path d="M36,40H35V39a1,1,0,0,0-1-1H30a1,1,0,0,0-1,1v1H28a1,1,0,0,0-1,1v4a1,1,0,0,0,1,1h1v1a1,1,0,0,0,1,1h4a1,1,0,0,0,1-1V46h1a1,1,0,0,0,1-1V41A1,1,0,0,0,36,40Zm-1,4H34a1,1,0,0,0-1,1v1H31V45a1,1,0,0,0-1-1H29V42h1a1,1,0,0,0,1-1V40h2v1a1,1,0,0,0,1,1h1Z"/><rect x="21" y="38" width="2" height="2"/><rect x="41" y="46" width="2" height="2"/></g></svg>
