<?xml version="1.0" standalone="no"?>
<!DOCTYPE svg PUBLIC "-//W3C//DTD SVG 20010904//EN"
 "http://www.w3.org/TR/2001/REC-SVG-20010904/DTD/svg10.dtd">
<svg version="1.0" xmlns="http://www.w3.org/2000/svg"
 width="485.000000pt" height="381.000000pt" viewBox="0 0 485.000000 381.000000"
 preserveAspectRatio="xMidYMid meet">
<metadata>
Created by potrace 1.16, written by Peter Selinger 2001-2019
</metadata>
<g transform="translate(0.000000,381.000000) scale(0.100000,-0.100000)"
fill="#000000" stroke="none">
<path d="M2696 3784 c-11 -11 -16 -35 -16 -79 0 -48 -4 -64 -16 -69 -30 -11
-52 -6 -57 14 -3 12 -14 20 -26 20 -23 0 -608 -217 -628 -233 -10 -7 -13 -53
-13 -168 l0 -159 -230 0 c-141 0 -230 4 -230 10 0 33 -43 28 -486 -51 -395
-70 -451 -83 -469 -102 -11 -12 -36 -76 -55 -141 l-35 -119 -85 6 c-47 4 -94
8 -105 9 -17 3 -20 -3 -20 -42 0 -39 3 -45 20 -42 74 11 165 13 165 4 0 -29
-14 -42 -44 -42 -18 0 -37 -5 -43 -11 -10 -10 -138 -8 -273 3 -35 3 -35 3 -35
-37 0 -38 1 -40 30 -37 120 11 268 13 278 3 7 -7 62 -11 153 -11 l142 0 7 -27
c12 -49 21 -53 124 -53 78 0 102 4 129 20 42 26 54 25 82 -5 50 -53 150 -53
200 0 23 25 25 25 186 25 151 0 164 1 174 19 21 41 5 111 -25 111 -11 0 -15
12 -15 40 l0 40 225 0 225 0 0 -29 c0 -17 5 -33 10 -36 6 -4 46 -47 89 -96
l78 -90 -13 -37 c-7 -20 -13 -59 -14 -85 0 -36 -19 -94 -76 -235 -59 -145 -75
-193 -71 -219 5 -26 -13 -80 -79 -247 -89 -227 -97 -265 -69 -334 9 -21 65
-86 132 -153 l116 -117 -7 -48 c-4 -27 -27 -91 -52 -143 -25 -53 -44 -105 -42
-119 2 -17 -7 -35 -27 -57 -41 -43 -55 -94 -55 -204 l0 -91 64 0 64 0 4 95 c5
138 -1 135 216 121 134 -9 175 -14 182 -26 5 -8 9 -40 8 -70 0 -30 -2 -44 -5
-30 -16 101 -14 100 -198 100 -182 0 -169 9 -185 -136 -15 -138 -15 -138 -60
-168 -32 -21 -42 -36 -55 -81 l-16 -55 -85 0 c-79 0 -85 -1 -95 -24 -8 -17 -8
-29 0 -45 12 -21 12 -21 494 -21 362 0 486 3 495 12 7 7 12 25 12 41 0 23 36
71 178 234 371 432 402 468 402 489 0 26 -18 44 -46 44 -14 0 -40 -21 -74 -60
l-52 -60 -38 20 c-44 23 -73 25 -118 9 -28 -10 -36 -6 -114 49 -107 76 -125
85 -153 78 -23 -6 -183 -180 -197 -214 -5 -12 -7 -8 -7 13 -1 25 17 48 106
138 58 59 111 107 117 107 6 0 42 -28 80 -61 l69 -60 43 48 c24 26 43 51 44
55 0 10 -122 114 -155 131 -16 8 -49 18 -72 22 -23 3 -47 12 -53 20 -18 21
-181 87 -202 82 -18 -5 -19 -2 -13 36 4 23 13 53 20 67 7 15 20 125 30 265 9
132 21 245 26 251 5 7 14 79 20 160 16 233 0 205 132 237 l112 27 466 -2 466
-3 -63 -155 c-62 -152 -73 -193 -55 -204 5 -4 -29 -102 -77 -219 -84 -209 -85
-213 -84 -292 1 -44 -3 -150 -9 -235 -10 -151 -11 -157 -51 -240 -22 -47 -43
-103 -45 -125 -3 -22 -14 -48 -24 -58 -44 -42 -59 -92 -59 -197 l0 -100 60 0
60 0 0 -40 c0 -37 -4 -43 -45 -72 -34 -24 -48 -42 -56 -73 -6 -22 -13 -46 -15
-52 -2 -9 -28 -13 -82 -13 -82 0 -102 -9 -102 -45 0 -12 5 -26 12 -33 9 -9
207 -12 829 -12 898 0 854 -3 833 58 -9 26 -12 27 -96 30 l-86 3 -12 50 c-10
43 -20 56 -56 82 -46 32 -47 35 -59 162 -15 150 -9 145 -192 145 -122 0 -149
-3 -165 -17 -10 -9 -18 -11 -18 -5 0 22 28 27 195 38 214 14 205 19 205 -118
l0 -98 70 0 70 0 0 91 c0 110 -14 161 -55 204 -16 18 -28 40 -27 50 4 19 -8
51 -56 150 -30 62 -34 84 -43 195 -5 69 -10 176 -10 238 0 63 -6 200 -13 305
-12 180 -12 194 5 217 18 26 15 60 -25 273 l-5 27 92 0 c59 0 97 4 105 12 8 8
12 50 12 125 l0 113 69 0 c66 0 101 14 101 40 0 4 25 138 55 296 30 159 55
299 55 311 0 32 -20 47 -112 83 -46 18 -84 34 -85 34 -1 1 -11 71 -22 156 -15
115 -25 158 -38 171 -22 22 -756 279 -795 279 -21 0 -28 -5 -28 -20 l0 -20
-40 20 c-34 18 -40 25 -40 53 0 18 -5 38 -12 45 -9 9 -131 12 -489 12 -421 0
-479 -2 -493 -16z m324 -334 l0 -310 -113 0 c-75 0 -117 -4 -125 -12 -17 -17
-17 -379 0 -396 9 -9 119 -12 435 -12 l423 0 0 -60 0 -60 -455 0 -455 0 0 580
0 580 145 0 145 0 0 -310z m330 0 l0 -310 -140 0 -140 0 0 310 0 310 140 0
140 0 0 -310z m290 0 l0 -310 -120 0 -120 0 0 310 0 310 120 0 120 0 0 -310z
m95 163 l35 -17 0 -413 c0 -381 -1 -413 -17 -413 -9 0 -27 -10 -40 -22 l-23
-21 0 451 c0 249 2 452 5 452 2 0 20 -8 40 -17z m460 -112 c185 -66 339 -122
342 -124 2 -3 20 -119 38 -259 19 -139 37 -270 40 -290 l5 -38 -390 0 -390 0
0 415 c0 228 4 415 9 415 4 0 160 -54 346 -119z m-1635 -311 l0 -420 -290 0
-290 0 0 309 c0 235 3 311 13 319 11 9 544 211 560 212 4 0 7 -189 7 -420z
m120 -95 l0 -495 -35 0 -35 0 0 488 c0 269 3 492 7 495 3 4 19 7 35 7 l28 0 0
-495z m-1250 -145 l0 -140 -64 0 -64 0 -6 33 c-9 51 -60 123 -111 159 l-46 32
138 27 c76 15 141 28 146 28 4 1 7 -62 7 -139z m2190 -20 l0 -160 -400 0 -400
0 0 160 0 160 400 0 400 0 0 -160z m-1940 -40 l0 -160 -35 0 -35 0 0 160 0
160 35 0 35 0 0 -160z m170 0 l0 -160 -60 0 -60 0 0 160 0 160 60 0 60 0 0
-160z m-757 106 c57 -21 105 -62 132 -116 14 -27 25 -54 25 -59 0 -6 -46 -12
-112 -13 l-113 -3 -3 -68 c-2 -42 2 -74 9 -83 9 -11 51 -14 205 -14 156 0 194
-3 194 -13 0 -18 -209 -27 -644 -27 -295 0 -328 2 -322 16 3 9 6 20 6 25 0 16
184 11 226 -7 27 -12 54 -14 94 -10 109 12 139 18 151 32 7 8 12 57 13 121 1
99 -1 111 -23 141 -13 19 -37 42 -54 52 l-30 19 39 6 c21 4 44 8 49 10 25 9
124 3 158 -9z m-267 -65 c37 -17 74 -53 74 -73 0 -12 -59 -10 -95 3 -45 17
-80 5 -95 -31 -11 -25 -10 -34 5 -56 9 -15 26 -29 36 -31 10 -3 19 -12 19 -19
0 -10 -14 -14 -50 -14 -56 0 -76 19 -87 82 -9 57 41 129 103 148 41 12 44 12
90 -9z m604 -206 l0 -35 -180 0 -180 0 0 35 0 35 180 0 180 0 0 -35z m1130
-45 l0 -40 -290 0 -290 0 0 40 0 40 290 0 290 0 0 -40z m2040 -20 l0 -60 -419
0 -420 0 -15 22 c-19 26 -20 51 -6 79 10 18 26 19 435 19 l425 0 0 -60z m-890
-126 c-14 -9 -50 -53 -80 -97 l-55 -82 -265 -3 c-146 -1 -274 0 -285 2 -11 3
-31 26 -44 51 -27 51 -45 63 -153 101 -40 14 -77 30 -82 35 -6 5 195 9 490 9
458 -1 497 -2 474 -16z m-1050 -44 c12 -23 58 -48 151 -80 49 -18 70 -31 83
-53 9 -16 15 -31 14 -32 -2 -1 -84 -22 -183 -47 l-180 -44 3 57 c4 70 -25 146
-75 189 l-34 30 105 0 c95 0 106 -2 116 -20z m1780 -166 l0 -185 -42 3 -43 3
-7 100 c-10 131 -21 168 -70 221 l-41 44 102 0 101 0 0 -186z m-488 161 c-12
-9 -34 -37 -49 -63 -26 -43 -28 -55 -27 -143 l2 -96 -127 34 c-168 44 -161 40
-122 64 18 11 54 54 83 99 50 79 51 80 93 80 28 0 51 7 66 20 15 12 39 19 64
20 38 0 39 0 17 -15z m-1481 -91 c25 -42 37 -26 -111 -150 -139 -116 -125
-108 -154 -89 -28 19 -70 79 -64 95 2 5 59 57 127 114 l125 105 27 -20 c15
-11 38 -35 50 -55z m1729 -73 c36 -30 69 -58 73 -62 22 -18 -70 -128 -95 -113
-20 12 -248 206 -248 211 0 15 34 65 61 87 l31 27 57 -48 c31 -26 85 -72 121
-102z m-1947 -242 c59 -16 133 -5 187 29 l46 28 -13 -145 c-6 -80 -12 -157
-12 -171 l-1 -26 -177 14 c-98 8 -179 15 -181 17 -2 1 2 77 9 168 l12 164 44
-33 c24 -18 63 -39 86 -45z m2062 -146 c7 -110 7 -113 -13 -113 -27 0 -268
-19 -308 -24 l-31 -4 -12 151 c-6 84 -11 160 -11 169 0 14 7 13 48 -10 88 -50
224 -32 287 38 l20 22 7 -58 c3 -33 9 -110 13 -171z m-492 111 c56 -14 67 -20
67 -38 0 -64 22 -242 32 -253 25 -30 -9 -23 -144 32 -79 32 -144 59 -146 60
-3 2 75 201 85 218 2 4 12 6 21 3 10 -3 47 -13 85 -22z m-1791 -260 l33 -15
-7 -92 c-3 -51 -7 -99 -7 -108 -1 -13 -11 -15 -55 -11 -30 2 -69 0 -85 -6 -17
-6 -31 -9 -31 -7 0 3 18 51 41 107 23 57 45 113 50 126 10 26 18 27 61 6z
m1749 -63 c92 -38 143 -65 141 -73 -1 -7 -24 -66 -50 -131 -38 -97 -49 -115
-57 -100 -5 10 -29 37 -52 60 -51 51 -124 72 -188 54 -21 -6 -40 -9 -42 -7 -3
3 97 256 102 256 1 0 67 -27 146 -59z m-1420 23 l81 -7 -6 -96 c-4 -53 -9
-116 -12 -140 l-6 -43 -21 20 c-68 61 -174 73 -253 27 l-46 -27 6 98 c4 55 9
119 12 143 l6 43 79 -6 c43 -3 115 -9 160 -12z m1942 9 c3 -5 8 -68 12 -140
l7 -133 -46 26 c-80 45 -186 33 -253 -28 l-21 -20 -6 79 c-4 43 -9 106 -12
139 l-5 62 108 7 c59 3 113 8 118 10 19 7 94 5 98 -2z m-333 -351 c5 -72 16
-146 24 -165 7 -19 19 -106 26 -193 l12 -159 -32 -103 c-18 -57 -30 -112 -27
-122 3 -11 -2 -25 -11 -32 -30 -26 -42 -76 -42 -183 l0 -105 54 0 55 0 -6 -38
c-4 -21 -15 -43 -27 -52 -48 -33 -74 -68 -81 -108 -9 -56 -31 -55 -39 3 -6 37
-15 51 -55 85 l-47 40 -14 110 c-19 163 -15 160 -199 160 -163 0 -175 -4 -184
-65 -3 -25 -4 -23 -6 11 0 27 5 50 17 64 l18 22 175 -12 c96 -6 177 -14 182
-17 4 -2 7 -47 7 -99 l0 -94 70 0 70 0 0 98 c0 97 -19 168 -49 187 -7 3 -9 15
-6 25 5 16 -34 164 -54 200 -9 19 15 358 27 373 5 7 35 78 67 159 32 81 60
146 62 144 2 -2 8 -62 13 -134z m-1942 102 c13 -4 22 -14 22 -26 0 -14 -5 -18
-16 -14 -91 35 -184 -22 -184 -111 0 -87 59 -139 148 -131 59 6 69 -6 17 -21
-93 -25 -195 48 -195 141 0 114 99 191 208 162z m288 -33 c139 -63 116 -268
-33 -302 -94 -21 -193 63 -193 163 0 50 39 108 89 135 53 28 83 29 137 4z
m1395 -16 c68 -44 90 -141 46 -206 -67 -99 -192 -107 -261 -17 -50 67 -43 148
17 205 58 56 129 62 198 18z m525 16 c139 -63 117 -268 -32 -301 -92 -21 -194
62 -194 158 0 49 41 113 90 139 52 28 82 29 136 4z m-2218 -67 c28 -20 31 -93
5 -117 -48 -42 -123 -8 -123 55 0 35 40 78 72 78 13 0 34 -7 46 -16z m175
-285 c47 -12 105 -6 149 17 l30 16 -6 -59 c-3 -32 -8 -93 -12 -136 l-6 -77
-96 5 c-54 3 -117 8 -141 11 l-44 6 7 116 c4 64 10 127 13 139 l5 23 30 -25
c16 -13 48 -30 71 -36z m1350 12 c42 -16 134 -13 168 5 17 8 33 13 35 11 7 -7
-8 -234 -16 -247 -5 -9 -44 -10 -145 -4 l-137 7 7 111 c3 61 8 124 11 139 l6
29 21 -21 c12 -11 35 -24 50 -30z m800 -152 l6 -76 -91 -7 c-50 -3 -115 -6
-145 -6 l-53 0 -1 43 c0 23 -4 81 -7 128 l-7 87 30 -16 c18 -10 55 -16 91 -17
51 0 69 5 110 31 l49 30 6 -60 c3 -34 9 -95 12 -137z m-1809 72 c48 -22 67
-36 70 -53 16 -76 17 -72 -74 -163 l-87 -87 -19 64 c-23 78 -21 223 4 251 20
23 29 22 106 -12z m-287 -207 l112 -7 26 -78 27 -79 -29 -40 c-32 -46 -28 -45
-221 -30 -110 9 -126 12 -142 32 -43 52 -43 58 -5 142 l37 78 41 -6 c23 -3 92
-8 154 -12z m1447 -3 c39 -6 40 -7 69 -89 l30 -83 -34 -35 -34 -36 -110 7
c-198 11 -201 12 -234 58 l-28 41 35 77 35 77 116 -5 c64 -3 134 -8 155 -12z
m708 -69 l35 -78 -30 -41 c-32 -45 -15 -41 -257 -59 l-85 -6 -34 36 -34 35 27
84 26 85 127 9 c71 5 142 11 159 11 29 2 32 -2 66 -76z m-1614 -34 l53 -39
-28 -33 c-15 -18 -59 -70 -98 -115 l-70 -81 -62 68 c-34 37 -63 72 -63 78 0 7
36 53 81 103 l81 92 27 -17 c14 -10 50 -35 79 -56z m252 -58 c21 -11 41 -24
44 -28 7 -11 -330 -407 -346 -407 -7 0 -25 18 -40 40 -25 37 -27 44 -20 96 8
52 15 64 108 172 84 97 106 118 144 130 61 20 65 20 110 -3z m-714 -260 c7
-36 12 -80 13 -97 l1 -33 -156 0 c-143 0 -155 1 -150 18 2 9 7 46 11 82 11
109 -1 101 143 98 l127 -3 11 -65z m1362 58 c5 -7 13 -40 16 -73 4 -33 9 -72
12 -87 l6 -28 -157 0 -157 0 6 38 c3 20 8 62 12 92 3 30 8 58 11 63 8 13 239
8 251 -5z m687 -88 l10 -95 -149 -3 c-82 -1 -151 -1 -153 2 -8 8 20 181 31
189 6 4 65 6 131 5 l120 -3 10 -95z m-1770 48 c24 -29 27 -38 22 -85 -5 -46
-2 -57 23 -94 l28 -43 -51 -63 c-44 -53 -57 -63 -83 -63 -30 0 -32 3 -38 45
-6 38 -15 51 -56 86 -40 33 -49 47 -52 80 l-4 39 63 0 63 0 0 39 c0 36 30 91
50 91 4 0 20 -14 35 -32z m-221 -235 c58 -38 60 -42 72 -105 l6 -38 -276 0
-275 0 6 33 c13 68 19 78 68 111 l50 35 146 0 146 1 57 -37z m1367 9 c61 -39
79 -59 79 -88 0 -22 -4 -24 -46 -24 -37 0 -47 -4 -51 -20 -5 -19 -14 -20 -225
-20 -204 0 -219 1 -214 18 3 9 8 34 12 55 5 32 15 44 58 72 l51 34 146 0 c143
1 146 1 190 -27z m685 -3 c47 -32 56 -48 68 -112 l7 -37 -276 0 c-186 0 -275
3 -275 11 0 5 5 30 11 54 9 36 20 50 62 79 l51 36 154 0 153 0 45 -31z"/>
<path d="M3902 3428 c-8 -8 -12 -46 -12 -105 0 -110 3 -113 110 -113 107 0
110 3 110 113 0 59 -4 97 -12 105 -16 16 -180 16 -196 0z m158 -103 l0 -65
-60 0 -60 0 0 65 0 65 60 0 60 0 0 -65z"/>
<path d="M4236 3128 c-19 -26 -23 -209 -6 -252 l10 -26 153 0 c106 0 157 4
165 12 8 8 12 53 12 134 0 98 -3 126 -16 138 -13 13 -42 16 -159 16 -137 0
-145 -1 -159 -22z m284 -138 l0 -100 -120 0 -120 0 0 100 0 100 120 0 120 0 0
-100z"/>
<path d="M2282 3298 c-8 -8 -12 -49 -12 -118 0 -69 4 -110 12 -118 7 -7 43
-12 93 -12 50 0 86 5 93 12 8 8 12 49 12 118 0 69 -4 110 -12 118 -16 16 -170
16 -186 0z m148 -118 l0 -80 -55 0 -55 0 0 80 0 80 55 0 55 0 0 -80z"/>
<path d="M3190 2501 c-5 -11 -10 -32 -10 -46 0 -57 13 -65 108 -65 55 0 92 4
100 12 7 7 12 30 12 53 0 23 -5 46 -12 53 -8 8 -45 12 -100 12 -76 0 -89 -2
-98 -19z"/>
<path d="M2215 1453 c-78 -21 -116 -110 -80 -187 41 -85 187 -89 230 -6 30 58
8 152 -42 178 -25 14 -83 22 -108 15z m90 -78 c14 -13 25 -36 25 -50 0 -33
-41 -75 -74 -75 -38 0 -55 10 -72 41 -40 79 58 148 121 84z"/>
<path d="M3583 1449 c-17 -5 -43 -23 -57 -40 -21 -25 -26 -41 -26 -86 0 -49 4
-59 34 -89 30 -30 40 -34 89 -34 45 0 61 5 86 26 60 50 60 148 0 198 -17 14
-36 26 -42 26 -7 0 -21 2 -32 4 -11 3 -34 0 -52 -5z m94 -71 c46 -43 14 -128
-47 -128 -41 0 -80 35 -80 73 0 67 78 101 127 55z"/>
<path d="M4124 1449 c-47 -14 -76 -51 -82 -107 -8 -89 41 -142 132 -142 135 0
171 194 45 244 -44 18 -51 18 -95 5z m96 -69 c31 -31 30 -72 -3 -107 -27 -31
-71 -30 -102 2 -30 30 -32 64 -4 99 26 33 79 36 109 6z"/>
</g>
</svg>
