<svg height="512pt" viewBox="0 0 512 512" width="512pt" xmlns="http://www.w3.org/2000/svg"><path d="m482 90h15c8.285156 0 15-6.714844 15-15v-60c0-8.285156-6.714844-15-15-15h-60c-8.285156 0-15 6.714844-15 15v15h-332v-15c0-8.285156-6.714844-15-15-15h-60c-8.285156 0-15 6.714844-15 15v60c0 8.285156 6.714844 15 15 15h15v331c0 .339844.027344.667969.050781 1h-15.050781c-8.285156 0-15 6.714844-15 15v60c0 8.285156 6.714844 15 15 15h60c8.285156 0 15-6.714844 15-15v-15h331c.335938 0 .667969-.027344 1-.050781v15.050781c0 8.285156 6.714844 15 15 15h60c8.285156 0 15-6.714844 15-15v-60c0-8.285156-6.714844-15-15-15h-15.050781c.023437-.332031.050781-.660156.050781-1zm-30-60h30v30h-30zm-422 0h30v30h-30zm30 452h-30v-30h30zm422 0h-30v-30h30zm-45-60c-8.285156 0-15 6.714844-15 15v15.050781c-.332031-.023437-.660156-.050781-1-.050781h-331v-15c0-8.285156-6.714844-15-15-15h-15.050781c.023437-.332031.050781-.660156.050781-1v-331h15c8.285156 0 15-6.714844 15-15v-15h332v15c0 8.285156 6.714844 15 15 15h15v331c0 .339844.027344.667969.050781 1zm0 0"/></svg>