<svg height="511pt" viewBox="-138 1 511 511.99945" width="511pt" xmlns="http://www.w3.org/2000/svg"><path d="m234.914062 489.015625-4.105468-13.625c-2.289063-7.59375-9.152344-12.691406-17.082032-12.691406h-27.585937l-7.964844-241.550781c-.679687-20.550782-17.304687-36.652344-37.847656-36.652344h-14.730469v-75.648438c17.378906-3.496094 30.511719-18.890625 30.511719-37.300781 0-12.378906-6.046875-24.023437-16.179687-31.148437-3.394532-2.382813-8.074219-1.566407-10.457032 1.824218-2.386718 3.390625-1.570312 8.074219 1.820313 10.457032 6.140625 4.316406 9.804687 11.371093 9.804687 18.867187 0 12.703125-10.320312 23.035156-23.003906 23.035156s-23.003906-10.332031-23.003906-23.035156c0-7.496094 3.664062-14.546875 9.800781-18.863281 3.390625-2.386719 4.207031-7.070313 1.824219-10.460938-2.386719-3.390625-7.070313-4.207031-10.460938-1.820312-10.128906 7.121094-16.175781 18.765625-16.175781 31.144531 0 18.40625 13.128906 33.804687 30.511719 37.300781v75.648438h-14.730469c-20.546875 0-37.171875 16.097656-37.847656 36.652344l-7.964844 241.550781h-27.589844c-7.929687 0-14.792969 5.097656-17.078125 12.691406l-4.105468 13.625c-1.644532 5.457031-.640626 11.210937 2.761718 15.785156 3.398438 4.574219 8.617188 7.199219 14.316406 7.199219h82.226563c4.144531 0 7.507813-3.363281 7.507813-7.507812 0-4.144532-3.363282-7.507813-7.507813-7.507813h-82.226563c-1.234374 0-1.949218-.710937-2.265624-1.136719-.316407-.425781-.792969-1.316406-.4375-2.5l4.105468-13.625c.363282-1.203125 1.449219-2.011718 2.703125-2.011718h191.273438c1.257812 0 2.34375.808593 2.707031 2.011718l4.105469 13.625c.355469 1.179688-.121094 2.074219-.4375 2.5-.316407.425782-1.035157 1.136719-2.269531 1.136719h-82.226563c-4.144531 0-7.503906 3.363281-7.503906 7.507813 0 4.144531 3.359375 7.507812 7.503906 7.507812h82.226563c5.699218 0 10.921874-2.625 14.320312-7.199219 3.394531-4.574219 4.402344-10.328125 2.757812-15.785156zm-161.902343-267.371094c.085937-2.667969.621093-5.207031 1.527343-7.554687l32.9375 32.972656-36.507812 36.546875zm-4.089844 124.0625 38.554687 38.59375-41.1875 41.234375zm.675781-20.566406.644532-19.5625 47.847656-47.894531 47.847656 47.894531.644531 19.5625-48.492187 48.539063zm92.042969-111.050781c.90625 2.347656 1.441406 4.886718 1.527344 7.554687l2.042969 61.960938-36.507813-36.542969zm5.617187 131.617187 2.632813 79.828125-41.1875-41.234375zm-26.933593-146.195312c4.222656 0 8.167969 1.128906 11.554687 3.105469l-33.789062 33.820312-33.789063-33.824219c3.386719-1.972656 7.332031-3.101562 11.554688-3.101562zm-74.761719 247.992187 52.527344-52.578125 52.527344 52.578125.5 15.195313h-106.054688zm0 0"/><path d="m160.90625 115.714844c1.386719 1.117187 3.050781 1.65625 4.703125 1.65625 2.191406 0 4.367187-.957032 5.851563-2.800782 9.773437-12.144531 15.15625-27.425781 15.15625-43.023437 0-12.851563-3.59375-25.410156-10.390626-36.316406-2.195312-3.515625-6.828124-4.589844-10.34375-2.394531-3.519531 2.191406-4.589843 6.824218-2.398437 10.339843 5.3125 8.519531 8.121094 18.332031 8.121094 28.371094 0 12.1875-4.207031 24.125-11.839844 33.613281-2.601563 3.230469-2.089844 7.953125 1.140625 10.554688zm0 0"/><path d="m202.113281 71.546875c0 25.113281-11.070312 48.710937-30.378906 64.742187-3.1875 2.648438-3.628906 7.382813-.976563 10.570313 1.484376 1.789063 3.625 2.710937 5.777344 2.710937 1.691406 0 3.390625-.566406 4.792969-1.730468 22.75-18.894532 35.796875-46.699219 35.796875-76.292969 0-26.046875-10.015625-50.652344-28.203125-69.28125-2.898437-2.96875-7.648437-3.03125-10.617187-.128906-2.964844 2.898437-3.023438 7.648437-.125 10.617187 15.433593 15.808594 23.933593 36.6875 23.933593 58.792969zm0 0"/><path d="m50.300781 71.546875c0 15.597656 5.382813 30.878906 15.15625 43.023437 1.484375 1.84375 3.660157 2.800782 5.855469 2.800782 1.652344 0 3.3125-.539063 4.699219-1.65625 3.230469-2.597656 3.742187-7.324219 1.144531-10.554688-7.636719-9.488281-11.839844-21.425781-11.839844-33.609375 0-10.042969 2.804688-19.855469 8.117188-28.371093 2.195312-3.519532 1.121094-8.148438-2.398438-10.34375-3.515625-2.191407-8.148437-1.121094-10.339844 2.398437-6.800781 10.902344-10.394531 23.460937-10.394531 36.3125zm0 0"/><path d="m55.589844 147.839844c1.402344 1.164062 3.101562 1.730468 4.792968 1.730468 2.15625 0 4.292969-.921874 5.777344-2.710937 2.652344-3.1875 2.210938-7.921875-.976562-10.570313-19.304688-16.03125-30.378906-39.628906-30.378906-64.742187 0-22.105469 8.5-42.984375 23.933593-58.792969 2.898438-2.96875 2.839844-7.71875-.125-10.617187-2.96875-2.898438-7.722656-2.839844-10.617187.128906-18.1875 18.628906-28.207032 43.234375-28.207032 69.28125 0 29.59375 13.050782 57.398437 35.800782 76.292969zm0 0"/></svg>