<?xml version="1.0" encoding="UTF-8" standalone="no"?>
<!-- Created with Inkscape (http://www.inkscape.org/) -->

<svg
   width="500"
   height="500"
   viewBox="0 0 132.29166 132.29167"
   version="1.1"
   id="svg3940"
   inkscape:version="1.1.2 (0a00cf5339, 2022-02-04)"
   sodipodi:docname="multi.svg"
   xmlns:inkscape="http://www.inkscape.org/namespaces/inkscape"
   xmlns:sodipodi="http://sodipodi.sourceforge.net/DTD/sodipodi-0.dtd"
   xmlns="http://www.w3.org/2000/svg"
   xmlns:svg="http://www.w3.org/2000/svg">
  <sodipodi:namedview
     id="namedview3942"
     pagecolor="#ffffff"
     bordercolor="#666666"
     borderopacity="1.0"
     inkscape:pageshadow="2"
     inkscape:pageopacity="0.0"
     inkscape:pagecheckerboard="0"
     inkscape:document-units="mm"
     showgrid="false"
     units="px"
     inkscape:zoom="0.83016554"
     inkscape:cx="49.38774"
     inkscape:cy="213.81278"
     inkscape:window-width="1920"
     inkscape:window-height="1016"
     inkscape:window-x="286"
     inkscape:window-y="1467"
     inkscape:window-maximized="1"
     inkscape:current-layer="layer1" />
  <defs
     id="defs3937">
    <inkscape:path-effect
       effect="mirror_symmetry"
       start_point="66.186494,14.483321"
       end_point="66.186494,117.96476"
       center_point="66.186494,66.224041"
       id="path-effect4151"
       is_visible="true"
       lpeversion="1.1"
       mode="free"
       discard_orig_path="false"
       fuse_paths="true"
       oposite_fuse="false"
       split_items="false"
       split_open="false" />
  </defs>
  <g
     inkscape:label="Layer 1"
     inkscape:groupmode="layer"
     id="layer1">
    <path
       style="fill;stroke:#000000;stroke-width:3;stroke-linecap:butt;stroke-linejoin:miter;stroke-miterlimit:4;stroke-dasharray:none;stroke-opacity:1"
       d="m 66.186494,117.96399 -0.155327,7.7e-4 -0.238408,-3.85305 -0.27809,-0.004 -0.339418,2.41743 -3.137421,-0.0244 -0.455817,-2.47041 -0.408977,-0.003 -0.05799,-1.52285 -0.367016,-0.004 -0.466207,-4.06629 -1.959337,-0.58565 0.01191,-3.47785 -28.026577,-1.25392 0.01008,1.94833 -0.121354,0.18664 -0.22072,0.18512 -0.312603,0.0424 -0.228203,-0.0101 -0.154416,-0.11298 -0.256334,-0.29093 -0.05567,-14.377181 0.232823,-0.320996 0.156437,-0.122869 0.227291,-0.08293 0.277929,-0.0046 0.234204,0.125182 0.212058,0.244634 0.01672,3.892664 0.155459,0.381304 29.666215,-39.699887 0.28475,-9.288465 1.632699,-1.70687 0.06949,-3.515783 -8.428559,2.07727 0.0432,-3.150658 9.579253,-9.047155 0.06036,-2.680689 0.183928,-1.4441 0.374362,-2.367885 0.409951,-3.79954 0.277103,-2.125494 0.355497,-1.771304 0.418338,-1.259576 0.778387,-0.543068 0.778387,0.543068 0.418338,1.259576 0.355497,1.771304 0.277103,2.125494 0.409951,3.79954 0.374362,2.367885 0.183928,1.4441 0.06036,2.680689 9.579253,9.047155 0.0432,3.150658 -8.428559,-2.07727 0.06949,3.515783 1.632699,1.70687 0.28475,9.288465 29.666217,39.699887 0.15546,-0.381304 0.0167,-3.892664 0.21206,-0.244634 0.2342,-0.125182 0.27793,0.0046 0.22729,0.08293 0.15644,0.122869 0.23282,0.320996 -0.0557,14.377181 -0.25633,0.29093 -0.15442,0.11298 -0.2282,0.0101 -0.31261,-0.0424 -0.22072,-0.18512 -0.12135,-0.18664 0.0101,-1.94833 -28.026578,1.25392 0.01191,3.47785 -1.959337,0.58565 -0.466207,4.06629 -0.367016,0.004 -0.05799,1.52285 -0.408977,0.003 -0.455817,2.47041 -3.137421,0.0244 -0.339418,-2.41743 -0.27809,0.004 -0.238408,3.85305 z"
       id="path3989"
       inkscape:path-effect="#path-effect4151"
       inkscape:original-d="m 66.187049,117.96399 -0.155882,7.7e-4 -0.238408,-3.85305 -0.27809,-0.004 -0.339418,2.41743 -3.137421,-0.0244 -0.455817,-2.47041 -0.408977,-0.003 -0.05799,-1.52285 -0.367016,-0.004 -0.466207,-4.06629 -1.959337,-0.58565 0.01191,-3.47785 -28.026577,-1.25392 0.01008,1.94833 -0.121354,0.18664 -0.22072,0.18512 -0.312603,0.0424 -0.228203,-0.0101 -0.154416,-0.11298 -0.256334,-0.29093 -0.05567,-14.377181 0.232823,-0.320996 0.156437,-0.122869 0.227291,-0.08293 0.277929,-0.0046 0.234204,0.125182 0.212058,0.244634 0.01672,3.892664 0.155459,0.381304 29.666215,-39.699887 0.28475,-9.288465 1.632699,-1.70687 0.06949,-3.515783 -8.428559,2.07727 0.0432,-3.150658 9.579253,-9.047155 0.06036,-2.680689 0.183928,-1.4441 0.374362,-2.367885 0.409951,-3.79954 0.277103,-2.125494 0.355497,-1.771304 0.418338,-1.259576 0.795555,-0.555046"
       transform="matrix(1.2071741,0,0,1.2071741,-13.752728,-13.439028)"
       sodipodi:nodetypes="ccccccccccccccccccccccccccccccccccccccccccccc" />
  </g>
</svg>
