<?xml version="1.0" encoding="UTF-8" standalone="no"?>
<!-- Created with Inkscape (http://www.inkscape.org/) -->

<svg
   width="200mm"
   height="200mm"
   viewBox="0 0 200 200"
   version="1.1"
   id="svg1"
   xml:space="preserve"
   inkscape:version="1.3.2 (091e20ef0f, 2023-11-25)"
   sodipodi:docname="transport.svg"
   xmlns:inkscape="http://www.inkscape.org/namespaces/inkscape"
   xmlns:sodipodi="http://sodipodi.sourceforge.net/DTD/sodipodi-0.dtd"
   xmlns="http://www.w3.org/2000/svg"
   xmlns:svg="http://www.w3.org/2000/svg"><sodipodi:namedview
     id="namedview1"
     pagecolor="#ffffff"
     bordercolor="#000000"
     borderopacity="0.25"
     inkscape:showpageshadow="2"
     inkscape:pageopacity="0.0"
     inkscape:pagecheckerboard="0"
     inkscape:deskcolor="#d1d1d1"
     inkscape:document-units="mm"
     inkscape:zoom="0.71891835"
     inkscape:cx="222.55657"
     inkscape:cy="287.23707"
     inkscape:window-width="1920"
     inkscape:window-height="1013"
     inkscape:window-x="0"
     inkscape:window-y="0"
     inkscape:window-maximized="1"
     inkscape:current-layer="layer1" /><defs
     id="defs1" /><g
     inkscape:label="Layer 1"
     inkscape:groupmode="layer"
     id="layer1"><path
       style="fill:#000000"
       d="m 98.5427,197.67592 c -0.143385,-0.37366 -0.260701,-2.80144 -0.260701,-5.39506 0,-4.71568 0,-4.71568 -2.040121,-4.42374 -2.806916,0.40167 -29.198642,4.80899 -30.923936,5.16419 -1.395872,0.28737 -1.395872,0.28737 -1.389295,-3.09494 0.0088,-4.52438 -1.726452,-3.22993 19.320883,-14.41278 15.486207,-8.22812 15.245607,-8.07291 14.226512,-9.17746 -0.207052,-0.22441 -0.801364,-1.56532 -1.320692,-2.9798 -0.519328,-1.41448 -1.121344,-2.78518 -1.337812,-3.04601 -0.216468,-0.26083 -0.296081,-0.57173 -0.176917,-0.69089 0.119164,-0.11917 -0.113921,-0.97112 -0.517965,-1.89323 -0.404045,-0.92211 -0.77637,-2.06312 -0.827389,-2.53557 -0.05102,-0.47245 -0.597718,-2.50183 -1.214886,-4.50974 -2.745016,-8.93071 -3.676019,-17.98297 -3.676502,-35.74711 -2.88e-4,-10.55798 -0.126053,-13.52236 -0.628652,-14.81772 -0.743517,-1.916284 -2.375368,-8.149414 -2.384778,-9.109062 -0.02838,-2.894398 -3.154442,-2.051186 -4.069876,1.097794 -0.823554,2.832928 -1.70182,3.008978 -2.426247,0.486344 -0.288306,-1.003954 -0.550303,-1.870229 -0.582215,-1.925055 -0.05721,-0.0983 -6.87353,0.997553 -8.643352,1.389581 -0.671813,0.148811 -0.980481,0.639034 -1.177279,1.869738 -0.478469,2.992183 -1.941144,3.200442 -2.649714,0.377272 -0.673061,-2.681688 -5.988477,-1.522669 -6.593958,1.437803 -0.39884,1.95011 -1.230912,2.045464 -1.990263,0.228081 -0.592962,-1.419156 -0.740445,-1.509584 -2.034011,-1.247129 -0.767081,0.155636 -2.917171,0.585566 -4.777976,0.9554 -3.259874,0.647899 -3.400873,0.726083 -3.865492,2.143414 -0.633231,1.931682 -1.330804,2.096255 -2.045125,0.482491 -0.736242,-1.663287 0.08113,-1.724434 -14.425648,1.079177 -13.603812,2.629101 -13.552009,2.609611 -15.880771,5.974271 -3.074439,4.44202 -3.980939,2.34178 -1.596937,-3.6999 0.872125,-2.210191 1.912642,-5.178177 2.31226,-6.595524 0.833065,-2.954676 -0.818252,-1.874838 23.208278,-15.176488 12.668654,-7.013664 15.74031,-10.308492 11.6507,-12.497185 -1.158656,-0.620094 -1.701502,-2.510086 -2.188257,-7.618713 -0.228019,-2.393127 -0.443854,-4.515253 -0.479633,-4.715835 -0.652338,-3.657138 7.030291,-6.728499 9.829251,-3.929539 0.994169,0.994169 0.694755,14.767214 -0.343599,15.805568 -4.209279,4.209278 4.408867,1.173638 14.337715,-5.050292 1.79611,-1.125897 2.13804,-5.729944 0.493882,-6.650061 -1.844734,-1.032366 -2.752756,-14.744745 -1.055123,-15.933814 1.300291,-0.91076 7.558317,-1.009272 8.750202,-0.137744 1.523958,1.114345 1.214745,14.398104 -0.36199,15.55104 -2.858751,2.09037 -1.026386,3.526064 2.299342,1.801578 7.161371,-3.713378 7.18229,-3.765358 7.47378,-18.571897 0.176983,-8.990025 0.38411,-11.878673 1.062486,-14.81772 0.463456,-2.007908 0.746761,-3.807877 0.629568,-3.999931 -0.117194,-0.192053 0.06288,-0.67524 0.400165,-1.073748 0.337285,-0.398507 1.525931,-3.052431 2.641436,-5.897609 5.948639,-15.1724444 9.068392,-14.7705706 15.151892,1.951807 0.64452,1.771684 1.35824,3.348221 1.58603,3.503416 0.22779,0.155195 0.45006,0.831656 0.49393,1.503247 0.0439,0.67159 0.41377,2.960545 0.82199,5.086566 0.40822,2.126021 0.84663,6.764611 0.97423,10.307979 0.16856,4.680362 0.50093,7.499761 1.21516,10.307978 0.54073,2.126021 1.12265,4.989451 1.29316,6.363179 0.34132,2.749913 0.66018,3.064579 5.68615,5.611432 2.24886,1.139583 2.24886,1.139583 2.24886,-0.120358 0,-0.692968 -0.21055,-1.330123 -0.46788,-1.415901 -1.57005,-0.52335 -2.45099,-14.544861 -1.00469,-15.991162 0.69272,-0.692723 6.14267,-0.965736 8.21016,-0.411284 2.51992,0.67578 1.8975,15.081022 -0.72155,16.699685 -1.32674,0.81997 -0.45993,5.566399 1.18161,6.470231 0.8839,0.48667 4.34452,2.467735 7.69028,4.402366 7.18268,4.153272 9.20266,4.265085 6.11396,0.338429 -1.80938,-2.300251 -2.19674,-13.955256 -0.5252,-15.802289 2.48861,-2.749886 11.0375,0.258974 9.80453,3.450793 -0.15146,0.392072 -0.45411,2.896903 -0.67256,5.566292 -0.46939,5.735752 -0.73146,6.957792 -1.49213,6.957792 -0.59602,0 -1.26507,3.738637 -0.99063,5.535622 0.16501,1.080386 4.29977,3.565344 23.1255,13.898236 12.805,7.028292 12.48141,6.774657 12.94223,10.144253 0.19376,1.416856 1.03325,4.221095 1.86552,6.231645 2.42231,5.85168 1.87444,7.43761 -1.13339,3.28087 -2.21018,-3.0544 -0.91763,-2.61944 -17.16746,-5.77703 -14.24653,-2.768324 -13.591,-2.706443 -13.94,-1.315912 -0.42229,1.682562 -1.79337,1.404592 -2.1382,-0.433502 -0.20023,-1.067323 -0.55065,-1.563694 -1.20059,-1.700638 -2.70988,-0.570983 -7.71485,-1.516603 -8.02706,-1.516603 -0.19807,0 -0.61487,0.531506 -0.92622,1.181123 -0.80214,1.673609 -1.76629,1.491709 -2.23917,-0.422449 -0.41002,-1.659703 -0.65113,-1.771429 -5.69268,-2.637843 -0.17146,-0.02947 -0.69343,0.671203 -1.15992,1.557045 -1.26551,2.403131 -2.38907,1.836533 -2.40912,-1.214884 -0.005,-0.785484 -0.53994,-1.004824 -4.45051,-1.825371 -5.75759,-1.208102 -5.61774,-1.22611 -6.42431,0.827216 -0.8696,2.213801 -1.61349,2.02368 -2.41725,-0.617791 -1.07647,-3.537727 -3.60159,-3.402922 -4.06965,0.217261 -0.16295,1.260295 -0.94464,4.224191 -1.73708,6.586436 -1.44081,4.294992 -1.44081,4.294992 -1.66378,19.756962 -0.31587,21.90491 -2.31811,32.53789 -8.62863,45.82288 -1.29259,2.72118 -1.54955,2.52188 16.07621,12.46829 16.53038,9.32828 16.53038,9.32828 16.87993,12.82589 0.56788,5.6824 1.97572,5.49749 -14.31954,1.88071 -11.4455,-2.54037 -19.39194,-4.13058 -19.60021,-3.92231 -0.043,0.043 -0.20112,2.00998 -0.35135,4.37104 -0.38514,6.05294 -1.451735,8.38197 -2.53992,5.54621 z"
       id="path1" /></g></svg>
